**ABCDEFGHIJKLMNOPQRSTUVWXYZabcdefghijklmnopqrstuvwxyz**************************
**PARASOLID !"#$%&'()*+,-./:;<=>?@[\]^_`{|}~0123456789**************************
**PART1;
MC=AMD64;
MC_MODEL=AMD64 Family 16 Model 5 Stepping 2, AuthenticAMD;
MC_ID=unknown;
OS=Windows_NT;
OS_RELEASE=6.1;
FRU=Autodesk;
APPL=Autodesk Inventor 2011;
SITE=unknown;
USER=unknown;
FORMAT=text;
GUISE=transmit;
KEY=Heavy Duty V-Pulley;
FILE=C:\Users\Greg\Desktop\Heavy Duty V-Pulley.x_t;
DATE=Sun, 14 Oct 2012 09:37:28 GMT;
**PART2;
SCH=SCH_2200149_20000;
USFLD_SIZE=0;
**PART3;
**END_OF_HEADER*****************************************************************
T51 : TRANSMIT FILE created by modeller version 220014917 SCH_2200149_200000 12
 1 322 2 3 0 0 0 0 1e3 1e-8 0 0 0 1 0 1 1 4 5 6 7 8 9 10 0 0 0 0 81 1 2 322 11 1
 0 0 0 0 12 70 3 0 4 T1 0 0 4 20 1 13 13 13 4 4 0 1 0 14 0 0 15 0 51 5 242 0 16
 17 0 0 +0 .001 0 0 1 0 .057 1 0 0 137 6 320 0 1 18 0 19 +20 21 0 ?29 7 297 0 22
 23 0 .057 541233724504764e-32 0 19 8 2 0 1 15 0 24 V16 9 7 0 ?25 0 26 27 0 0 1
 18 10 9 0 28 0 29 30 983379075767928e-20 1 17 28 0 31 28 28 10 32 26 33 25 -18
 29 8 0 34 10 35 36 538485779838678e-20 1 29 30 272 0 10 36 37 .005 .045 -.02553
299832284405 29 36 271 0 29 0 30 .00597910576986053 .045 -.02632964667808555 29
 37 273 0 35 30 38 .005 .045 -.00489897948556636 18 35 15 0 39 29 40 37 14259072
35880318e-21 1 29 38 274 0 40 37 41 .027 .052 0 18 40 20 0 42 35 43 38 ?1 29 41
 275 0 43 38 44 .027 .032 0 18 43 23 0 45 40 46 41 ?1 29 44 276 0 46 41 47 .008
 .002 979717439317883e-33 18 46 28 0 48 43 49 44 ?1 29 47 277 0 49 44 50 .007 .0
03 -857252759403147e-33 18 49 31 0 51 46 52 47 ?1 29 50 278 0 52 47 53 .007 .051
 857252759403147e-33 18 52 35 0 54 49 55 50 ?1 29 53 279 0 55 50 56 .031 .002 0
 18 55 41 0 57 52 58 53 ?1 29 56 280 0 58 53 59 .008 .052 -979717439317882e-33 1
8 58 47 0 60 55 61 56 ?1 29 59 281 0 61 56 62 .043973939570023 .0206191993910735
 0 18 61 54 0 63 58 64 59 ?1 29 62 282 0 64 59 65 .042 .0178001215287158 -102870
3311283776e-32 18 64 57 0 66 61 67 62 ?1 29 65 283 0 67 62 68 .042 .016199878471
2842 0 18 67 61 0 69 64 70 65 ?1 29 68 284 0 70 65 71 .067 .029 0 18 70 66 0 72
 67 73 68 ?1 29 71 285 0 73 68 74 .043973939570023 .01338080060892644 -107705088
6806556e-32 18 73 72 0 75 70 76 71 ?1 29 74 286 0 76 71 77 .067 .005 0 18 76 76
 0 78 73 79 74 ?1 29 77 287 0 79 74 80 .031 .02682121792930505 0 18 79 81 0 81 7
6 82 77 ?1 29 80 288 0 82 77 83 .035026060429977 .02400214006694735 -85789105584
6262e-32 18 82 84 0 84 79 85 80 ?1 29 83 289 0 85 80 86 .031 .032 0 18 85 88 0 8
7 82 88 83 ?1 29 86 290 0 88 83 89 .057 .032 0 18 88 93 0 90 85 91 86 ?1 29 89 2
91 0 91 86 92 .035026060429977 .00999785993305263 0 18 91 98 0 93 88 94 89 ?1 29
 92 292 0 94 89 95 .031 .00717878207069491 -759281015471359e-32 18 94 101 0 96 9
1 97 92 ?1 29 95 293 0 97 92 98 .057 .002 0 18 97 105 0 99 94 100 95 ?1 29 98 29
4 0 100 95 101 .057 .034 0 18 100 116 0 102 97 103 98 ?1 29 101 295 0 103 98 23
 .067 .034 0 18 103 121 0 104 100 105 101 ?1 29 23 296 0 105 101 7 .067 99920072
2162641e-32 0 18 105 129 0 106 103 22 23 ?1 17 106 0 107 106 106 105 108 109 0 1
08 -18 22 134 0 110 105 0 7 ?1 17 110 0 111 110 110 22 112 113 0 112 -15 111 132
 0 110 114 115 17 112 0 116 112 112 22 110 113 0 0 +16 113 133 0 ?112 109 0 117
 0 0 1 16 109 128 0 ?108 118 113 119 0 0 1 31 117 270 0 113 119 120 0 +0 5273559
36696949e-32 0 0 -1 0 1 0 0 .057 31 119 269 0 109 121 117 0 +0 999200722162641e-
32 0 0 -1 0 1 0 0 .067 134 120 301 0 1 117 27 122 +123 124 133 27 304 0 9 120 12
5 0 +120 .00597937847362135 .0449997163304263 -.0263293114804727 .00500027734427
525 .0449997553792247 -.02553271977778015 602050592946165e-19 1 141 122 27 122 1
22 120 136 123 3 4 3 2 1 FFF1 126 127 128 135 124 1 0 45 12 126 .005979437424012
 .04499971632807525 -.02632935944221095 .00565305073076642 .04499972934512505 -.
02606381288740065 .00532666403752083 .04499974236217485 -.0257982663325904 .0050
0027734427525 .0449997553792247 -.02553271977778015 127 2 127 4 4 128 2 128 0 1
 133 125 307 0 129 27 130 0 +130 .005 .045 -.00489897948556636 .005 .045 -.00489
897948556636 0 1 17 129 0 131 129 129 35 39 132 125 0 +137 130 308 0 1 125 133 1
34 +135 136 0 ?133 133 309 0 39 130 137 0 +137 .005 .045 -.00489897948556636 .00
5 .045 -.00489897948556636 0 1 141 134 125 134 134 130 51 135 221 0 138 139 140
 141 +0 .027 0 0 1 0 .007 1 0 0 134 136 0 0 0 0 0 0 +142 143 136 142 2 65 2 35 5
 TTF1 144 145 146 135 143 1 0 45 130 144 .775193373310361 .018 .77520446154954 .
01751427202944495 .795418042162749 .0170125714436526 .814924459108377 .016528422
6431212 .851688337181326 .01606642912658525 .886530115758243 .01562858968605685
 .936174510666836 .0152121277405455 .982567878668122 .01482293833996532 1.037890
019407904 .0144853291486142 1.09235540141375 .0141529484176856 1.15434408522753
 .01388028274762016 1.21932519127165 .01359445450073656 1.286429563077592 .01340
181658943412 1.355214696870256 .01320435367985208 1.42773150734143 .013102035732
93628 1.500043439268265 .01300000686040044 1.570796326794895 .013 1.641530034281
2 .01299999314145932 1.713861146248365 .01310203573293626 1.786359153510285 .013
2043137753543 1.8551630905122 .01340181658943412 1.922249741409535 .013594389905
97332 1.987248568362265 .01388028274762016 2.04922173255279 .0141528674210199 2.
10370263418189 .0144853291486142 2.15901100927657 .01482284041191144 2.205418142
92296 .0152121277405455 2.255050846722035 .01562847284003065 2.289904316408465 .
01606642912658525 2.326660599885685 .0165282954935225 2.346174611427045 .0170125
7144365265 2.366388190588665 .017514208446033 2.36639928027943 .018 2.3664103559
60805 .01848517786269195 2.346174611427045 .01898742855634735 2.326668194475575
 .01947157735691475 2.289904316408465 .0199335708734147 2.255062537839175 .02037
14103138829 2.205418142922955 .0207878722594545 2.15902477490828 .02117706166014
36 2.10370263418189 .0215146708513858 2.049237252175555 .0218470515822906 1.9872
48568362265 .02211971725237985 1.92226746230249 .02240554549935945 1.85516309051
22 .02259818341056585 1.78637795670179 .02279564632014645 1.713861146248365 .022
8979642670637 1.6415492143775 .022999993139547 1.570796326794895 .023 1.50006261
932794 .0230000068585932 1.42773150734143 .0228979642670637 1.355233500062172 .0
227956862245959 1.286429563077592 .02259818341056585 1.219342912200554 .02240561
00940849 1.15434408522753 .02211971725237985 1.092370920994592 .0218471325788231
5 1.037890019407904 .0215146708513858 .982581644261959 .0211771595876723 .936174
510666836 .0207878722594545 .88654180686908 .02037152715996565 .851688337181327
 .01993357087341475 .81493205370501 .01947170450651015 .79541804216275 .01898742
855634735 .775182296177661 .01848524144361765 .775193373310361 .018 127 35 145 1
 2 2 2 2 2 2 2 2 2 2 2 2 2 2 2 2 2 2 2 2 2 2 2 2 2 2 2 2 2 2 2 2 2 1 128 35 146
 -.03125 0 .03125 .0625 .09375 .125 .15625 .1875 .21875 .25 .28125 .3125 .34375
 .375 .40625 .4375 .46875 .5 .53125 .5625 .59375 .625 .65625 .6875 .71875 .75 .7
8125 .8125 .84375 .875 .90625 .9375 .96875 1 1.03125 14 138 32 147 ?148 149 150
 4 135 -0 0 148 149 24 52 139 220 0 149 20 135 0 +0 .0025 0 0 -1 0 .0075 .707106
781186552 .707106781186543 -1 0 0 50 140 222 0 148 135 151 0 +.019 .002 0 0 -1 0
 .707106781186548 0 .707106781186548 141 141 130 141 141 135 14 148 38 152 ?153
 138 154 4 140 +0 0 153 138 24 52 151 223 0 153 140 155 0 +0 .0515 0 0 1 0 .0075
 .707106781186546 .707106781186549 -1 0 0 14 153 43 156 ?157 148 158 4 151 -0 0
 157 148 24 50 155 224 0 157 151 159 0 +.017 .052 0 0 1 0 .707106781186548 0 .70
7106781186548 14 157 48 160 ?161 153 162 4 155 +0 0 161 153 24 54 159 225 0 161
 155 163 0 +0 .0178001215287158 0 0 1 0 .045 .003 .707106781186548 0 .7071067811
86548 14 161 51 164 ?165 157 166 4 159 -0 0 165 157 24 51 163 226 0 165 159 167
 0 +0 .017 0 0 -1 0 .042 1 0 0 14 165 58 168 ?169 161 170 4 163 +0 0 169 161 24
 52 167 227 0 169 163 171 0 +0 .02445037207167245 0 0 1 0 .0545 .939692620785908
 .34202014332567 1 0 0 14 169 63 172 ?173 165 174 4 167 +0 0 173 165 24 54 171 2
28 0 173 167 175 0 +0 .0161998784712842 0 0 1 0 .045 .003 .707106781186548 0 .70
7106781186548 14 173 68 176 ?177 169 178 4 171 -0 0 177 169 24 52 175 229 0 177
 171 179 0 +0 .00954962792832753 0 0 -1 0 .0545 .939692620785909 .34202014332566
75 1 0 0 14 177 73 180 ?181 173 182 4 175 +0 0 181 173 24 54 179 230 0 181 175 1
83 0 +0 .02682121792930505 0 0 1 0 .034 .003 .707106781186548 0 .707106781186548
 14 181 78 184 ?185 177 186 4 179 -0 0 185 177 24 51 183 231 0 185 179 187 0 +0
 .02726838695453935 0 0 -1 0 .031 1 0 0 14 185 85 188 ?189 181 190 4 183 +0 0 18
9 181 24 52 187 232 0 189 183 191 0 +0 .02726838695453935 0 0 1 0 .044 .93969262
0785908 .34202014332567 1 0 0 14 189 90 192 ?193 185 194 4 187 -0 0 193 185 24 5
4 191 233 0 193 187 195 0 +0 .00717878207069491 0 0 1 0 .034 .003 .7071067811865
48 0 .707106781186548 14 193 95 196 ?197 189 198 4 191 -0 0 197 189 24 52 195 23
4 0 197 191 199 0 +0 .00673161304546063 0 0 -1 0 .044 .939692620785909 .34202014
3325668 1 0 0 14 197 102 200 ?201 193 202 4 195 -0 0 201 193 24 51 199 235 0 201
 195 203 0 +0 .00673161304546063 0 0 -1 0 .031 1 0 0 14 201 107 204 ?205 197 206
 4 199 +0 0 205 197 24 50 203 236 0 205 199 207 0 +.029 .032 0 0 1 0 .7071067811
86548 0 .707106781186548 14 205 110 208 ?209 201 210 4 203 +0 0 209 201 24 51 20
7 237 0 209 203 211 0 +0 .033 0 0 1 0 .057 1 0 0 14 209 113 212 ?213 205 214 4 2
07 -0 0 213 205 24 50 211 238 0 213 207 215 0 +.062 .034 0 0 1 0 .70710678118654
8 0 .707106781186548 14 213 118 216 ?217 209 218 4 211 +0 0 217 209 24 51 215 23
9 0 217 211 219 0 +0 .0315 0 0 -1 0 .067 1 0 0 14 217 123 220 ?221 213 222 4 215
 +0 0 221 213 24 51 219 240 0 221 215 17 0 +0 .0025 0 0 -1 0 .067 1 0 0 14 221 1
26 223 ?114 217 107 4 219 +0 0 114 217 24 50 17 241 0 114 219 5 0 +.062 77021722
3333702e-32 0 0 -1 0 .707106781186548 0 .707106781186548 14 114 131 224 ?16 221
 111 4 17 +0 0 16 221 24 81 1 224 213 225 114 226 0 223 227 228 14 16 136 227 ?0
 114 229 4 5 -0 0 0 114 24 13 24 3 0 0 0 0 0 0 8 14 14 14 5 230 ?231 0 232 4 233
 +0 0 231 0 24 81 1 230 141 225 14 234 0 0 235 236 14 231 12 235 ?237 14 238 4 2
39 -0 0 237 14 24 15 232 6 0 25 14 0 124 233 217 0 14 0 239 240 +241 242 51 239
 218 0 231 233 20 243 +0 .045 0 0 0 -1 .005 -1 0 0 141 240 244 245 245 233 126 2
41 FT3 3 4 15 1 1 2 13 FFT1 3 246 247 248 249 250 125 242 0 1 0 3.63756297810213
 0 1 0 3.63756297810213 2 BBPPBBPP????0 0 0 0 45 180 246 .005979437424012 .04499
971632807525 -.02632935944221095 .00597950203790832 .0458696576981588 -.02632936
330690275 .00556734926049073 .0476095859378571 -.0264278640213435 .0038544187449
65465 .0496859756139834 -.0267525558316806 .001387159977418344 .0508418780129154
 -.02700925034656175 -.0023137614800475 .0508549819391032 -.02701238800809855 -.
00511772183221478 .0486894007240528 -.0265310988625513 -.00618059553456769 .0453
208240574461 -.02627858929074385 -.00562949024707688 .0417152842350707 -.0264299
4083427975 -.00231614275733906 .03913890599330495 -.0270183651821437 .0013845118
4825993 .03915695775847565 -.02700874422829665 .003855148825911875 .040312553198
7077 -.02675405816264455 .00556696157711284 .0423899377173561 -.0264278408331927
 .00597937281011569 .04412977495799175 -.02632935557751915 .005979437424012 .044
99971632807525 -.02632935944221095 .00565305073076642 .04499972934512505 -.02606
381288740065 .00565311181772291 .0458297511138094 -.02606381671311485 .005263456
33772549 .0474898380628411 -.0261613239918655 .003644025876984085 .0494709470096
323 -.0264827411007501 .001311442058502758 .0505738077156313 -.02673684670555095
 -.002187465157353495 .050586310332894 -.0267399527219878 -.00483837175505541 .0
485201026410201 -.02626351765102405 -.00584322865608593 .0453061021820037 -.0260
135547817673 -.00532220536789694 .04186601225945795 -.02616337985896285 -.002189
71645298193 .0394078580681875 -.02674586961283545 .001308938477076516 .039425081
4795232 -.02673634569177625 .00364471610657176 .04052764931244845 -.026484228279
85235 .00526308981598654 .0425097074507349 -.02616130103758035 .0056529896438099
3 .0441697075764407 -.02606380906168645 .00565305073076642 .04499972934512505 -.
02606381288740065 .00532666403752083 .04499974236217485 -.0257982663325904 .0053
267215975375 .0457898445294601 -.025798270119327 .00495956341496025 .04737009018
7825 -.0258947839623876 .003433633009002695 .0492559184052812 -.0262129263698195
5 .001235724139587174 .0503057374183472 -.0264644430645402 -.002061168834659495
 .0503176387266847 -.02646751743587705 -.00455902167789604 .0483508045579875 -.0
259959364394968 -.00550586177760418 .0452913803065614 -.02574852027279075 -.0050
1492048871699 .04201674028384525 -.02589681888364595 -.0020632901486248 .0396768
101430701 -.0264733740435272 .001233365105893098 .03969320520057075 -.0264639471
552558 .00343428338723165 .0407427454261892 -.02621439839706015 .004959218054860
24 .04262947718411365 -.02589476124196805 .00532660647750416 .0442096401948896 -
.0257982625458538 .00532666403752083 .04499974236217485 -.0257982663325904 .0050
0027734427525 .0449997553792247 -.02553271977778015 .00500033137735209 .04574993
79451108 -.0255327235255391 .00465567049219501 .0472503423128089 -.0256282439329
096 .003223240141021315 .0490408898009301 -.02594311163888905 .00116000622067159
 .0500376671210632 -.02619203942352945 -.00193487251196549 .0500489671204755 -.0
261950821497663 -.004279671600736675 .0481815064749549 -.0257283552279695 -.0051
6849489912242 .0452766584311191 -.0254834857638142 -.00470763560953704 .04216746
83082325 -.025630257908329 -.00193686384426767 .0399457622179527 -.0262008784742
1895 .001157791734709682 .0399613289216183 -.0261915486187354 .00322385066789154
 .04095784153992995 -.02594456851426795 .00465534629373394 .04274924691749245 -.
02562822144635575 .00500022331119841 .0442495728133386 -.02553271603002115 .0050
0027734427525 .0449997553792247 -.02553271977778015 127 2 247 4 4 127 13 248 4 1
 1 1 1 1 1 1 1 1 1 1 4 128 2 249 0 1 128 13 250 0 .259825927007295 .519651854014
59 .779477781021885 1.03930370802918 1.55895556204377 1.7321728467153 2.07860741
605836 2.59825927007295 2.858085197080245 3.11791112408754 3.377737051094835 3.6
3756297810213 137 244 313 0 1 251 33 252 +233 253 0 ?141 245 254 240 240 233 137
 254 318 0 1 255 18 256 +233 257 0 ?133 255 317 0 258 259 254 0 +254 .0059794374
377751 .044999999997261 -.0263293594452165 .00597943743777511 .044999999997261 -
.0263293594452165 0 1 133 18 319 0 34 254 6 0 +6 .00597948320327554 .04499999999
7261 -.02632956096522965 .00597948320327554 .044999999997261 -.02632956096522965
 0 1 141 256 255 256 256 254 134 257 0 0 0 0 0 0 +260 261 136 260 1 2 2 2 5 FFF1
 262 263 264 135 261 1 0 45 4 262 0 282412169785894e-19 0 -3.63753473688515 127
 2 263 2 2 128 2 264 0 1 17 34 0 265 34 34 29 258 266 18 267 -15 265 24 0 34 237
 0 17 258 0 232 25 267 29 34 266 255 0 +16 266 11 0 538485779838678e-20 258 26 2
68 0 0 0 1 17 267 0 232 258 32 29 25 9 0 258 -17 32 0 232 267 25 10 28 26 251 0
 +17 25 0 232 32 258 10 267 9 0 32 +16 26 10 0 983379075767928e-20 32 9 266 0 0
 0 1 133 251 312 0 32 137 244 0 +244 .00500027735578461 .0449999999991238 -.0255
327197806948 .00500027735578461 .0449999999991238 -.0255327197806948 0 1 137 137
 310 0 1 133 251 269 +239 270 0 ?141 269 133 269 269 137 134 270 0 0 0 0 0 0 +27
1 272 136 271 2 65 2 33 5 FFF1 273 274 275 135 272 1 0 45 130 273 3.141592653589
795 .00489897948556636 2.96191703275115 .00489900579303102 2.744526680202755 .00
526675581668633 2.662427458921685 .00540563958137167 2.550008278591245 .00563628
083088182 2.51454286117877 .00570904233085336 2.45494998343061 .0058345363029667
3 2.386585730384 .00597850152145541 2.362077447251955 .00602933574675957 2.25500
8015816295 .00625141542371871 2.17291802575172 .00640096596605425 2.065953523105
91 .00659583259192118 1.974437641939705 .00671887567219492 1.872288135858255 .00
685621565861625 1.771772194046885 .00692711569715367 1.66845011946116 .006999995
07268239 1.5707963267949 .007 1.473169312821394 .00700000492596644 1.36982045954
2908 .00692711569715367 1.269330951114714 .00685624308908158 1.167155011650088 .
00671887567219492 1.075665053313914 .00659587470627711 .968674627838072 .0064009
6596605425 .88660880627987 .00625146337435856 .779515206337841 .0060293357467595
7 .755015713053142 .00597852025149512 .686642670159184 .00583453630296673 .62706
9906921278 .00570908449750821 .591584374998549 .00563628083088182 .4791916772293
88 .00540569106496133 .3970659733870395 .00526675581668632 .1796705289279195 .00
489897948556636 0 .00489897948556636 -.1796600695575855 .00489897948556636 -.397
06597338704 .00526675581668632 -.479165194690814 .00540563958141883 -.5915843749
98546 .00563628083088182 -.627049792443008 .00570904233091879 -.686642670159184
 .00583453630296673 -.755006923314609 .00597850152168676 -.779515206337842 .0060
2933574675957 -.886584637828205 .0062514154238075 -.968674627838071 .00640096596
605426 -1.075639130456154 .00659583259188483 -1.16715501165009 .0067188756721949
3 -1.269304517729914 .00685621565861303 -1.36982045954291 .00692711569715367 -1.
47314253412102 .00699999507267915 -1.570796326794895 .007 -1.66842334076552 .007
00000492596968 -1.771772194046885 .00692711569715367 -1.872261702480665 .0068562
4308907647 -1.974437641939705 .00671887567219492 -2.065927600257505 .00659587470
629967 -2.17291802575172 .00640096596605425 -2.254983847322065 .0062514633743448
1 -2.36207744725195 .00602933574675957 -2.3865769403356 .00597852025190951 -2.45
494998343061 .00583453630296673 -2.51452274695525 .00570908449691222 -2.55000827
8591245 .00563628083088182 -2.66240097640164 .00540569106490114 -2.7445266802027
55 .00526675581668632 -2.9619376734071 .00489895318112382 -3.141592653589795 .00
489897948556636 127 33 274 3 2 2 2 2 2 2 2 2 2 2 2 2 2 2 2 2 2 2 2 2 2 2 2 2 2 2
 2 2 2 2 2 3 128 33 275 0 .0625 .09375 .109375 .125 .15625 .1875 .21875 .25 .281
25 .3125 .34375 .375 .390625 .40625 .4375 .5 .5625 .59375 .609375 .625 .65625 .6
875 .71875 .75 .78125 .8125 .84375 .875 .890625 .90625 .9375 1 16 268 19 0 ?276
 266 277 278 0 0 1 17 276 0 279 276 276 40 42 268 0 0 +16 277 27 0 ?280 268 281
 282 0 0 1 31 278 247 0 268 0 283 0 +0 .052 0 0 -1 0 1 0 0 .027 31 283 248 0 284
 278 282 0 +0 .032 0 0 -1 0 1 0 0 .027 16 284 22 0 ?285 286 287 283 0 0 1 31 282
 249 0 277 283 288 0 +0 .002 0 0 -1 0 -1 0 0 .008 31 288 250 0 281 282 289 0 +0
 .003 0 0 1 0 -1 0 0 .007 16 281 30 0 ?290 277 132 288 0 0 1 31 289 251 0 291 28
8 292 0 +0 .051 0 0 -1 0 -1 0 0 .007 16 291 34 0 ?293 294 295 289 0 0 1 31 292 2
52 0 294 289 296 0 +0 .002 0 0 -1 0 1 0 0 .031 16 294 40 0 ?297 132 291 292 0 0
 1 31 296 253 0 295 292 298 0 +0 .052 0 0 1 0 -1 0 0 .008 16 295 46 0 ?299 291 3
00 296 0 0 1 31 298 254 0 300 296 301 0 +0 .0206191993910735 -538525443403278e-3
2 0 -1 0 -1 0 0 .043973939570023 16 300 53 0 ?302 295 303 298 0 0 1 31 301 255 0
 303 298 304 0 +0 .0178001215287158 0 0 1 0 -1 0 1224646799147352e-31 .042 16 30
3 56 0 ?305 300 306 301 0 0 1 31 304 256 0 307 301 308 0 +0 .0161998784712842 0
 0 -1 0 -1 0 1224646799147352e-31 .042 16 307 60 0 ?309 306 310 304 0 0 1 31 308
 257 0 306 304 311 0 +0 .029 0 0 -1 0 1 0 0 .067 16 306 65 0 ?312 303 307 308 0
 0 1 31 311 258 0 310 308 313 0 +0 .01338080060892644 -538525443403278e-32 0 1 0
 -1 0 0 .043973939570023 16 310 71 0 ?314 307 315 311 0 0 1 31 313 259 0 118 311
 316 0 +0 .005 0 0 -1 0 1 0 0 .067 16 118 75 0 ?317 318 109 313 0 0 1 31 316 260
 0 315 313 319 0 +0 .02682121792930505 0 0 -1 0 -1 0 1224646799147352e-31 .031 1
6 315 80 0 ?320 310 321 316 0 0 1 31 319 261 0 321 316 322 0 +0 .024002140066947
35 -428945527923131e-32 0 1 0 -1 0 0 .035026060429977 16 321 83 0 ?323 315 324 3
19 0 0 1 31 322 262 0 324 319 325 0 +0 .032 0 0 -1 0 1 0 0 .031 16 324 87 0 ?326
 321 327 322 0 0 1 31 325 263 0 287 322 328 0 +0 .032 0 0 -1 0 1 0 0 .057 16 287
 92 0 ?329 284 330 325 0 0 1 31 328 264 0 327 325 331 0 +0 .00999785993305263 -4
28945527923131e-32 0 -1 0 -1 0 0 .035026060429977 16 327 97 0 ?332 324 333 328 0
 0 1 31 331 265 0 333 328 334 0 +0 .00717878207069491 0 0 1 0 -1 0 1224646799147
352e-31 .031 16 333 100 0 ?335 327 286 331 0 0 1 31 334 266 0 286 331 336 0 +0 .
002 0 0 -1 0 1 0 0 .057 16 286 104 0 ?337 333 284 334 0 0 1 31 336 267 0 330 334
 121 0 +0 .034 0 0 -1 0 1 0 0 .057 16 330 115 0 ?338 287 318 336 0 0 1 31 121 26
8 0 318 336 119 0 +0 .034 0 0 -1 0 1 0 0 .067 16 318 120 0 ?339 330 118 121 0 0
 1 17 339 0 340 339 339 103 104 318 0 0 +15 340 125 0 339 217 0 17 104 0 218 104
 104 103 339 318 0 339 -15 218 119 0 104 213 341 15 341 122 0 338 213 0 17 338 0
 341 338 338 100 102 330 0 0 +17 102 0 214 102 102 100 338 330 0 338 -15 214 114
 0 102 209 342 15 342 117 0 329 209 0 17 329 0 342 329 329 88 90 287 0 0 +17 90
 0 194 90 90 88 329 287 0 329 -15 194 91 0 90 189 343 15 343 94 0 84 189 0 17 84
 0 343 84 84 82 323 321 0 323 -17 323 0 344 323 323 82 84 321 0 0 +15 344 82 0 3
23 181 0 17 337 0 202 337 337 97 99 286 0 0 +15 202 103 0 337 197 345 17 99 0 22
9 99 99 97 337 286 0 337 -15 229 137 0 99 16 116 15 116 138 0 112 16 0 15 345 10
6 0 93 197 0 17 93 0 345 93 93 91 332 327 0 332 -17 332 0 198 332 332 91 93 327
 0 0 +15 198 96 0 332 193 346 15 346 99 0 335 193 0 17 335 0 346 335 335 94 96 3
33 0 0 +17 96 0 347 96 96 94 335 333 0 335 -15 347 109 0 96 201 0 17 326 0 190 3
26 326 85 87 324 0 0 +15 190 86 0 326 185 348 17 87 0 210 87 87 85 326 324 0 326
 -15 210 111 0 87 205 349 15 349 112 0 285 205 0 17 285 0 349 285 285 43 45 284
 0 0 +17 45 0 350 45 45 43 285 284 0 285 -15 350 21 0 45 237 265 14 237 17 351 ?
149 231 279 4 20 +0 0 149 231 24 81 1 351 147 225 237 352 0 235 353 354 14 149 2
5 353 ?138 237 355 4 139 -0 0 138 237 24 15 279 18 0 276 237 350 51 20 219 0 237
 239 139 356 +0 .042 0 0 -1 0 .027 1 0 0 141 356 6 356 356 20 81 1 353 150 225 1
49 357 0 351 147 358 15 355 26 0 280 149 359 17 280 0 355 280 280 46 48 277 0 0
 +15 359 29 0 290 149 0 17 290 0 359 290 290 49 51 281 0 0 +17 51 0 360 51 51 49
 290 281 0 290 -15 360 37 0 51 138 0 17 48 0 361 48 48 46 280 277 0 280 -15 361
 42 0 48 148 0 80 1 225 362 363 8015 0 0 0 0 3 5 0 0 0 FFFFTFFFFFFFFF2 81 2 357
 149 362 149 364 353 352 365 366 367 81 1 147 153 225 138 365 0 353 152 368 83 1
 358 0 81 2 365 152 362 138 369 147 357 370 371 372 81 1 152 156 225 148 370 0 1
47 156 373 83 1 368 0 81 2 370 155 362 148 374 152 365 375 376 377 81 1 156 159
 225 153 375 0 152 160 378 83 1 373 0 81 2 375 158 362 153 379 156 370 380 381 3
82 81 1 160 162 225 157 380 0 156 164 383 83 1 378 0 81 2 380 161 362 157 384 16
0 375 385 386 387 81 1 164 165 225 161 385 0 160 168 388 83 1 383 0 81 2 385 164
 362 161 389 164 380 390 391 392 81 1 168 168 225 165 390 0 164 172 393 83 1 388
 0 81 2 390 167 362 165 394 168 385 395 396 397 81 1 172 171 225 169 395 0 168 1
76 398 83 1 393 0 81 2 395 170 362 169 399 172 390 400 401 402 81 1 176 174 225
 173 400 0 172 180 403 83 1 398 0 81 2 400 173 362 173 404 176 395 405 406 407 8
1 1 180 177 225 177 405 0 176 184 408 83 1 403 0 81 2 405 176 362 177 409 180 40
0 410 411 412 81 1 184 180 225 181 410 0 180 188 413 83 1 408 0 81 2 410 179 362
 181 414 184 405 415 416 417 81 1 188 183 225 185 415 0 184 192 418 83 1 413 0 8
1 2 415 182 362 185 419 188 410 420 421 422 81 1 192 186 225 189 420 0 188 196 4
23 83 1 418 0 81 2 420 185 362 189 424 192 415 425 426 427 81 1 196 189 225 193
 425 0 192 200 428 83 1 423 0 81 2 425 188 362 193 429 196 420 430 431 432 81 1
 200 192 225 197 430 0 196 204 433 83 1 428 0 81 2 430 191 362 197 434 200 425 4
35 436 437 81 1 204 195 225 201 435 0 200 208 438 83 1 433 0 81 2 435 194 362 20
1 439 204 430 440 441 442 81 1 208 198 225 205 440 0 204 212 443 83 1 438 0 81 2
 440 197 362 205 444 208 435 445 446 447 81 1 212 201 225 209 445 0 208 216 448
 83 1 443 0 81 2 445 200 362 209 449 212 440 450 451 452 81 1 216 204 225 213 45
0 0 212 220 453 83 1 448 0 81 2 450 203 362 213 454 216 445 455 456 457 81 1 220
 207 225 217 455 0 216 223 458 83 1 453 0 81 2 455 206 362 217 459 220 450 460 4
61 462 81 1 223 210 225 221 460 0 220 224 463 83 1 458 0 81 2 460 209 362 221 46
4 223 455 226 465 466 83 1 463 0 80 2 362 467 468 8014 0 0 0 0 3 5 0 0 0 FFFFTFF
FFFFFFF2 1 81 1 464 208 469 221 0 460 459 470 471 81 2 226 212 362 114 470 224 4
60 472 473 474 83 4 465 .666559437904324 0 .607613361335597 .525490196078431 82
 1 466 60 81 1 470 211 469 114 0 226 464 475 476 81 2 472 215 362 16 475 227 226
 0 477 478 83 4 473 .588235294117647 0 .686090689068478 .63921568627451 82 1 474
 25 81 1 475 214 469 16 0 472 470 0 479 81 1 227 216 225 16 472 0 224 0 480 83 4
 477 .588235294117647 0 .686090689068478 .63921568627451 82 1 478 25 83 1 480 0
 80 1 469 0 481 8001 0 0 0 0 3 5 0 0 0 FFFFTFTFFFFFFF2 83 3 479 .622222344080607
 .622222344080607 .637908677260081 79 15 481 SDL/TYSA_COLOUR83 3 476 .6222223440
80607 .622222344080607 .637908677260081 81 1 459 205 469 217 0 455 454 464 482 8
3 3 471 .571241994698842 .571241994698842 .599999984105428 81 1 454 202 469 213
 0 450 449 459 483 83 3 482 .571241994698842 .571241994698842 .599999984105428 8
1 1 449 199 469 209 0 445 444 454 484 83 3 483 .622222344080607 .622222344080607
 .637908677260081 81 1 444 196 469 205 0 440 439 449 485 83 3 484 .6222223440806
07 .622222344080607 .637908677260081 81 1 439 193 469 201 0 435 434 444 486 83 3
 485 .622222344080607 .622222344080607 .637908677260081 81 1 434 190 469 197 0 4
30 429 439 487 83 3 486 .622222344080607 .622222344080607 .637908677260081 81 1
 429 187 469 193 0 425 424 434 488 83 3 487 .622222344080607 .622222344080607 .6
37908677260081 81 1 424 184 469 189 0 420 419 429 489 83 3 488 .622222344080607
 .622222344080607 .637908677260081 81 1 419 181 469 185 0 415 414 424 490 83 3 4
89 .622222344080607 .622222344080607 .637908677260081 81 1 414 178 469 181 0 410
 409 419 491 83 3 490 .622222344080607 .622222344080607 .637908677260081 81 1 40
9 175 469 177 0 405 404 414 492 83 3 491 .622222344080607 .622222344080607 .6379
08677260081 81 1 404 172 469 173 0 400 399 409 493 83 3 492 .571241994698842 .57
1241994698842 .599999984105428 81 1 399 169 469 169 0 395 394 404 494 83 3 493 .
571241994698842 .571241994698842 .599999984105428 81 1 394 166 469 165 0 390 389
 399 495 83 3 494 .571241994698842 .571241994698842 .599999984105428 81 1 389 16
3 469 161 0 385 384 394 496 83 3 495 .571241994698842 .571241994698842 .59999998
4105428 81 1 384 160 469 157 0 380 379 389 497 83 3 496 .571241994698842 .571241
994698842 .599999984105428 81 1 379 157 469 153 0 375 374 384 498 83 3 497 .5712
41994698842 .571241994698842 .599999984105428 81 1 374 154 469 148 0 370 369 379
 499 83 3 498 1.143685698509216 1.131135682264964 1.15947699546814 81 1 369 151
 469 138 0 365 364 374 500 83 3 499 .571241994698842 .571241994698842 .599999984
105428 81 1 364 148 469 149 0 357 501 369 502 83 3 500 .826143662134806 .8300653
49737803 .832679669062297 81 1 501 145 469 237 0 352 503 364 504 83 3 502 1.1436
85698509216 1.131135682264964 1.15947699546814 81 2 352 146 362 237 501 351 505
 357 506 507 81 1 503 142 469 231 0 505 508 501 509 83 3 504 .622222344080607 .6
22222344080607 .637908677260081 81 2 505 143 362 231 503 235 234 352 510 511 81
 1 508 139 469 14 0 234 0 503 512 83 3 509 .826143662134806 .830065349737803 .83
2679669062297 81 2 234 140 362 14 508 230 0 505 513 514 83 3 512 1.1436856985092
16 1.131135682264964 1.15947699546814 83 4 513 .999923586840843 .6 .933303054171
983 .94486832290103 82 1 514 77 81 1 235 144 225 231 505 0 230 351 515 83 4 510
 .780392156862745 .207843137254902 .705836814989854 .803936290975588 82 1 511 31
 83 1 515 0 83 4 506 .588235294117647 0 .686090689068478 .63921568627451 82 1 50
7 25 79 21 468 SDL/TYSA_REFLECTIVITY83 4 461 .666559437904324 0 .607613361335597
 .525490196078431 82 1 462 60 83 4 456 .588235294117647 0 .686090689068478 .6392
1568627451 82 1 457 25 83 4 451 .588235294117647 0 .686090689068478 .63921568627
451 82 1 452 25 83 4 446 .588235294117647 0 .686090689068478 .63921568627451 82
 1 447 25 83 4 441 .588235294117647 0 .686090689068478 .63921568627451 82 1 442
 25 83 4 436 .588235294117647 0 .686090689068478 .63921568627451 82 1 437 25 83
 4 431 .588235294117647 0 .686090689068478 .63921568627451 82 1 432 25 83 4 426
 .588235294117647 0 .686090689068478 .63921568627451 82 1 427 25 83 4 421 .58823
5294117647 0 .686090689068478 .63921568627451 82 1 422 25 83 4 416 .588235294117
647 0 .686090689068478 .63921568627451 82 1 417 25 83 4 411 .666559437904324 0 .
607613361335597 .525490196078431 82 1 412 60 83 4 406 .666559437904324 0 .607613
361335597 .525490196078431 82 1 407 60 83 4 401 .666559437904324 0 .607613361335
597 .525490196078431 82 1 402 60 83 4 396 .666559437904324 0 .607613361335597 .5
25490196078431 82 1 397 60 83 4 391 .666559437904324 0 .607613361335597 .5254901
96078431 82 1 392 60 83 4 386 .666559437904324 0 .607613361335597 .5254901960784
31 82 1 387 60 83 4 381 .999923586840843 .6 .933303054171983 .94486832290103 82
 1 382 77 83 4 376 .666559437904324 0 .607613361335597 .525490196078431 82 1 377
 60 83 4 371 .780392156862745 .207843137254902 .705836814989854 .803936290975588
 82 1 372 31 83 4 366 .999923586840843 .6 .933303054171983 .94486832290103 82 1
 367 77 79 21 363 SDL/TYSA_TRANSLUCENCY83 1 354 0 15 348 89 0 81 185 0 17 81 0 3
48 81 81 79 320 315 0 320 -17 320 0 186 320 320 79 81 315 0 0 +15 186 79 0 320 1
81 344 17 317 0 516 317 317 76 78 118 0 0 +15 516 130 0 317 221 0 17 78 0 182 78
 78 76 317 118 0 317 -15 182 74 0 78 177 517 15 517 77 0 75 177 0 17 75 0 517 75
 75 73 314 310 0 314 -17 314 0 518 314 314 73 75 310 0 0 +15 518 70 0 314 173 0
 17 312 0 174 312 312 70 72 306 0 0 +15 174 64 0 312 169 519 17 72 0 222 72 72 7
0 312 306 0 312 -15 222 124 0 72 217 340 15 519 67 0 63 169 0 17 63 0 519 63 63
 61 302 300 0 302 -17 302 0 166 302 302 61 63 300 0 0 +15 166 52 0 302 161 520 1
5 520 55 0 305 161 0 17 305 0 520 305 305 64 66 303 0 0 +17 66 0 521 66 66 64 30
5 303 0 305 -15 521 62 0 66 165 0 17 309 0 178 309 309 67 69 307 0 0 +15 178 69
 0 309 173 518 17 69 0 170 69 69 67 309 307 0 309 -15 170 59 0 69 165 521 17 299
 0 522 299 299 58 60 295 0 0 +15 522 45 0 299 153 0 17 60 0 523 60 60 58 299 295
 0 299 -15 523 50 0 60 157 0 17 297 0 154 297 297 55 57 294 0 0 +16 132 14 0 142
5906235880318e-21 129 281 294 0 0 0 1 15 154 39 0 297 148 361 17 57 0 206 57 57
 55 297 294 0 297 -15 206 108 0 57 201 347 17 293 0 158 293 293 52 54 291 0 0 +1
5 158 44 0 293 153 522 17 54 0 150 54 54 52 293 291 0 293 -15 150 33 0 54 138 13
1 15 131 36 0 129 138 360 17 42 0 162 42 42 40 276 268 0 276 -15 162 49 0 42 157
 523 137 259 315 0 1 33 255 524 +239 525 0 ?133 33 314 0 28 244 259 0 +259 .005
 .0449999999991246 -.0255327197806948 .005 .0449999999991246 -.0255327197806948
 0 1 141 524 33 524 524 259 134 525 0 0 0 0 0 0 +526 527 136 526 2 33 2 17 5 FFF
1 528 529 530 135 527 1 0 45 66 528 3.141592653764865 .0255327197806948 3.325067
042075425 .02553272556366535 3.535261003720845 .025629710937808 3.66198927772892
5 .02568818449705255 3.927294928840015 .02586102345868645 4.176759940335405 .026
02354270156835 4.31893739440951 .02608853420573075 4.52555180874809 .02618298083
6928 4.71282398224843 .02618446337146025 4.90165568189528 .02618595825193435 5.1
0569330684769 .0260893499028765 5.23224176364104 .026029431358493 5.497987383264
19 .025857191299183 5.75530350204752 .0256904147268222 5.88961271974228 .0256298
360056153 6.09728520030115 .0255361675775056 6.28325773778001 .0255332255168945
 6.46752072957843 .02553031050106685 6.67715570427789 .0256298024067297 6.803580
769389 .02568980322801195 7.06877684350817 .02586019838757785 7.32738651441813 .
0260263616171292 7.46080785592872 .02608822442715985 7.66550218841135 .026183134
03053635 7.85386183113851 .0261827067009777 8.04204436333511 .0261822797732279 8
.24762741617946 .02608809823697785 8.38682819054447 .0260243276946325 8.63910030
007741 .02586023677848975 8.90289056526269 .0256886538541469 9.03112165224225 .0
256296079266381 9.24154789776092 .0255327140054252 9.42477796094445 .02553271978
06948 127 17 529 3 2 2 2 2 2 2 2 2 2 2 2 2 2 2 2 3 128 17 530 0 .0625 .125 .1875
 .25 .3125 .375 .4375 .5 .5625 .625 .6875 .75 .8125 .875 .9375 1 141 252 251 252
 252 244 134 253 0 0 0 0 0 0 +531 532 136 531 1 2 2 2 5 FFF1 533 534 535 135 532
 1 0 45 4 533 1.000000000000552 2824138851487135e-20 1.000000000000552 3.6375912
19490645 127 2 534 2 2 128 2 535 0 1 141 243 137 536 536 239 141 536 259 243 243
 239 15 238 13 0 39 231 31 17 39 0 238 39 39 35 129 132 133 129 -15 31 16 0 28 2
31 0 83 1 236 0 83 1 228 0 15 107 127 0 106 221 516 17 108 0 115 108 108 105 106
 109 0 0 +15 115 135 0 108 114 0 19 15 1 0 1 0 8 4 S141 19 18 19 19 6 134 21 0 0
 0 0 0 0 +537 538 136 537 2 33 2 19 5 TTF1 539 540 541 135 538 1 0 45 66 539 4.9
3570277315571 -.002999999997261 4.93569784432973 -.004150854141857925 4.91835682
579362 -.00522404339291026 4.90128033527099 -.00628086171280452 4.86957482278073
 -.00710096646014188 4.83824437544978 -.00791136965423016 4.79741608314686 -.008
3537988409159 4.75659631326499 -.00879613567576422 4.71236245006603 -.0087981705
5215328 4.66809762947355 -.00880020685266551 4.62747456683768 -.0083538275249517
5 4.58706347842546 -.00790977743844486 4.55533616292364 -.00709672629699232 4.52
322121018409 -.00627374147871816 4.5062528580773 -.00522790378122266 4.489000199
970335 -.00416454299540739 4.48912649956776 -.003000419900495945 4.4892527724571
35 -.00183654297783885 4.50635457289504 -.000775723130253411 4.52319307990399 .0
002687647003503135 4.55528927526681 .001094268811320922 4.58700758283581 .001910
05376636763 4.62741229797195 .002356027718487745 4.66799461096833 .0028039619373
5766 4.71229260748872 .002801057183633585 4.75648050247963 .002798159649600075 4
.79738746979437 .002355013475785845 4.838263889206 .00191219822815042 4.86959022
023394 .001101701562348122 4.90126597687954 .0002821643134721605 4.9183579150089
4 -.000775859958921786 4.93570769898574 -.00184984539166142 4.93570277315571 -.0
02999999997261 127 19 540 1 2 2 2 2 2 2 2 2 2 2 2 2 2 2 2 2 2 1 128 19 541 -.062
5 0 .0625 .125 .1875 .25 .3125 .375 .4375 .5 .5625 .625 .6875 .75 .8125 .875 .93
75 1 1.0625 74 20 13 4 0 0 475 472 227 2 0 0 0 0 0 0 0 0 0 0 0 0 0 0 0 0 80 1 11
 542 543 8017 0 0 0 0 0 0 0 0 0 TTTTTTTTTTTTTF3 84 6 12 Solid179 13 543 SDL/TYSA
_NAME1 0 
