700 0 1 0           
33 Autodesk Inventor 15.2.0000.30900 18 ASM 216.0.2.401 NT 24 Sun Oct 14 09:38:36 2012 
1 9.9999999999999995e-007 1e-010 
body $-1 -1 $-1 $1 $-1 $-1 #
lump $-1 -1 $-1 $-1 $2 $0 #
shell $-1 -1 $-1 $-1 $-1 $3 $-1 $1 #
face $-1 -1 $-1 $4 $5 $2 $-1 $6 forward single #
face $-1 -1 $-1 $7 $8 $2 $-1 $9 reversed single #
loop $-1 -1 $-1 $-1 $10 $3 #
spline-surface $-1 -1 $-1 forward { srfsrfblndsur @11 blendsupsur cone 0 42 0 -0 -1 -0 27 0 0 1 I I 0 1 27 forward I I I I null_curve nullbs 0 0 0 
	@11 blendsupsur cone 0 44.999999999999993 0 0 0 -1 -5 0 0 1 I I -0 -1 5 forward I I I I null_curve nullbs 0 0 0 
	intcurve forward { exactcur full nubs 3 periodic 20 
	0 3 0.19692469671815124 1 0.39378593234856119 1 0.58110853746355362 1 0.77131896651809206 1 
	0.95452842599938625 1 1.1423451174525008 1 1.3316891355867853 1 1.5223630184062433 1 1.7214960044430181 1 
	1.9160669736591029 1 2.1151999596958793 1 2.3058738425153407 1 2.4952178606496243 1 2.6830345521027379 1 
	2.8662440115840329 1 3.0564544406385687 1 3.2437770457535637 1 3.4406382813839755 1 3.6375629781021277 3 
	5.7981977297484075 45 -25.532998322843198 
	5.7981977297484066 45.659614358963708 -25.532998322843198 
	5.5703896629848559 46.978630509115689 -25.586333584090795 
	4.6081459751119862 48.691946192084934 -25.784239084838966 
	3.1655722258155028 49.980369571725205 -26.007915164781281 
	1.4209358378547219 50.726398129221266 -26.166388559408304 
	-0.47640414594227509 50.879715232662683 -26.201474237199992 
	-2.3212759293513487 50.425960064183776 -26.100027183002624 
	-3.9374987340643015 49.396929549555715 -25.898770219135979 
	-5.1610982985886178 47.876140345888402 -25.675480583961267 
	-5.8252910929717236 46.007929488193426 -25.527111570725609 
	-5.8252910929717281 43.992070511806588 -25.527111570725598 
	-5.1610982985886391 42.123859654111584 -25.675480583961278 
	-3.9374987340642891 40.603070450444278 -25.898770219135976 
	-2.3212759293513434 39.574039935816209 -26.100027183002631 
	-0.47640414594227459 39.120284767337296 -26.201474237200003 
	1.4209358378547057 39.273601870778727 -26.166388559408304 
	3.1655722258155072 40.019630428274773 -26.007915164781302 
	4.6081459751119862 41.308053807915002 -25.784239084838966 
	5.5703896629848568 43.021369490884311 -25.586333584090806 
	5.7981977297484093 44.340385641036292 -25.532998322843202 
	5.7981977297484075 45 -25.532998322843198 
	0 
	null_surface 
	null_surface 
	nullbs 
	nullbs 
	I I 
	0 
	0 
	19 0 0.19692469671815124 0.39378593234856119 0.58110853746355362 0.77131896651809206 0.95452842599938625 1.1423451174525008 1.3316891355867853 1.5223630184062433 1.7214960044430181 1.9160669736591029 2.1151999596958793 2.3058738425153407 2.4952178606496243 2.6830345521027379 2.8662440115840329 3.0564544406385687 3.2437770457535637 3.4406382813839755 
	F 1 F 0 } I I 0 0 
	two_radii two_ends calibrated 0 3.6375629781021277 0.8169310380243423 0.8169310380243423 two_ends calibrated 0 3.6375629781021277 0.79819772974840708 0.79819772974840708 rounded_chamfer radius two_ends calibrated 0 3.6375629781021277 0 0 
	F 0 F 1 
	I I 
	1 0.001 0.009160395658443456 
	1 
	summary 2 0 1 14 0 0.098465233399185115 0.25600960683788132 0.46081729230818635 0.72706728341958293 1.0194495127551029 1.3135982594713553 1.6408616183122797 2.0202571367946063 2.3343839095922392 2.7207146819676349 3.0760219915575036 3.4573670881676439 3.6375629781021277 0.009160395658443456 OPEN PERIODIC NON_SINGULAR NON_SINGULAR 
	0 
	0 
	0 
	0 
	0 
	0 
	null_curve 
	convex 
	rb_snapshot 
	} I I I I #
face $-1 -1 $-1 $11 $12 $2 $-1 $13 forward single #
loop $-1 -1 $-1 $14 $15 $4 #
cone-surface $-1 -1 $-1 0 44.999999999999993 0 0 0 -1 -5 0 0 1 I I 0 1 5 forward I I I I #
coedge $-1 -1 $-1 $16 $17 $18 $19 forward $5 $20 #
face $-1 -1 $-1 $21 $22 $2 $-1 $23 forward single #
loop $-1 -1 $-1 $24 $25 $7 #
cone-surface $-1 -1 $-1 0 42 0 -0 -1 -0 27 0 0 1 I I 0 1 27 forward I I I I #
loop $-1 -1 $-1 $-1 $26 $4 #
coedge $-1 -1 $-1 $15 $15 $27 $28 reversed $8 $-1 #
coedge $-1 -1 $-1 $18 $10 $26 $29 forward $5 $30 #
coedge $-1 -1 $-1 $10 $18 $31 $32 forward $5 $33 #
coedge $-1 -1 $-1 $17 $16 $10 $19 reversed $5 $34 #
edge $-1 -1 $-1 $35 0 $36 1 $10 $37 forward @7 tangent #
pcurve $-1 -1 $-1 1 $37 0 0 #
face $-1 -1 $-1 $38 $39 $2 $-1 $40 forward single #
loop $-1 -1 $-1 $41 $42 $11 #
cone-surface $-1 -1 $-1 0 2.5000000000000009 0 0 1 0 -7.5000000000000018 0 0 1 I I 0.70710678118655168 -0.70710678118654346 7.5000000000000018 forward I I I I #
loop $-1 -1 $-1 $43 $44 $7 #
coedge $-1 -1 $-1 $25 $25 $45 $46 forward $12 $-1 #
coedge $-1 -1 $-1 $26 $26 $16 $29 reversed $14 $-1 #
coedge $-1 -1 $-1 $27 $27 $15 $28 forward $47 $-1 #
edge $-1 -1 $-1 $48 0 $48 3.16546985161914 $27 $49 forward @7 unknown #
edge $-1 -1 $-1 $36 0 $36 3.6375629781021277 $26 $50 forward @7 unknown #
pcurve $-1 -1 $-1 0 forward { exppc nubs 1 periodic 2 
	0 1 3.6375629781021277 1 
	1 0 
	1 3.6375629781021277 
	0 
	spline forward { ref 0 } I I I I 
	} 0 0 #
coedge $-1 -1 $-1 $31 $31 $17 $32 reversed $43 $-1 #
edge $-1 -1 $-1 $35 -3.637562978102133 $35 -5.3290705182007514e-015 $31 $51 forward @7 unknown #
pcurve $-1 -1 $-1 0 reversed { exppc nubs 1 periodic 2 
	2.2204460492503131e-016 1 3.6375629781021273 1 
	0 0 
	0 3.6375629781021277 
	0 
	spline forward { ref 0 } I I I I 
	} 0 0 #
pcurve $-1 -1 $-1 -1 $37 0 3.6375629781021277 #
vertex $-1 -1 $-1 $19 $52 #
vertex $-1 -1 $-1 $19 $53 #
intcurve-curve $-1 -1 $-1 forward { parcur full nurbs 1 open 2 
	0 1 1 1 
	5.9791057698606123 45 -26.329646678085513 1 
	5 44.999999999999993 -25.532998322843198 1 
	0 
	spline forward { ref 0 } I I I I 
	null_surface 
	nubs 1 open 2 
	0 1 1 1 
	0 0 
	1 0 
	
	nullbs 
	I I 
	0 
	0 
	0 
	surf1 } I I #
face $-1 -1 $-1 $54 $55 $2 $-1 $56 forward single #
loop $-1 -1 $-1 $47 $57 $21 #
cone-surface $-1 -1 $-1 0 26.999999999999996 0 -0 -1 -0 7 0 0 1 I I 0 -1 7 forward I I I I #
loop $-1 -1 $-1 $-1 $58 $11 #
coedge $-1 -1 $-1 $42 $42 $59 $60 forward $22 $-1 #
loop $-1 -1 $-1 $-1 $31 $7 #
coedge $-1 -1 $-1 $44 $44 $61 $62 reversed $24 $-1 #
coedge $-1 -1 $-1 $45 $45 $25 $46 reversed $63 $-1 #
edge $-1 -1 $-1 $64 0 $64 6.2831853071795862 $25 $65 forward @7 unknown #
loop $-1 -1 $-1 $66 $27 $21 #
vertex $-1 -1 $-1 $28 $67 #
intcurve-curve $-1 -1 $-1 forward { surfintcur full nubs 3 periodic 17 
	0 3 0.19943198751935726 2 0.39886397503871451 2 0.59511571897174975 2 0.7913674629047851 2 
	0.98761920683782023 2 1.1838709507708554 2 1.3833029382902127 2 1.58273492580957 2 1.7821669133289273 2 
	1.9815989008482846 2 2.1778506447813197 2 2.3741023887143546 2 2.57035413264739 2 2.7666058765804253 2 
	2.9660378640997829 2 3.16546985161914 3 
	5 44.999999999999993 -4.8989794855663558 
	5 44.335226708268806 -4.8989794855663558 
	4.8621776583263285 43.660088252120055 -5.0473710405596535 
	4.347552281943412 42.44364758494094 -5.4968631387228122 
	3.969881017279524 41.898813205414037 -5.7873405658305188 
	3.1081131138403482 41.037045301974864 -6.2916520860071472 
	2.5621319368559901 40.655023126428127 -6.5454609423272405 
	1.3357805508172693 40.135944446739849 -6.900961564735435 
	0.65417247977678439 39.999999999999993 -7 
	-0.65417247977678405 39.999999999999993 -7 
	-1.335780550817266 40.135944446739849 -6.9009615647354376 
	-2.5621319368559869 40.655023126428127 -6.5454609423272423 
	-3.1081131138403482 41.037045301974864 -6.2916520860071454 
	-3.9698810172795254 41.898813205414037 -5.7873405658305188 
	-4.347552281943412 42.44364758494094 -5.4968631387228122 
	-4.8621776583263285 43.660088252120055 -5.0473710405596535 
	-5 44.335226708268806 -4.8989794855663558 
	-5 45.66477329173118 -4.8989794855663558 
	-4.8621776583263285 46.339911747879931 -5.0473710405596535 
	-4.347552281943412 47.556352415059038 -5.4968631387228122 
	-3.9698810172795254 48.101186794585942 -5.7873405658305188 
	-3.1081131138403482 48.962954698025115 -6.2916520860071454 
	-2.5621319368559932 49.344976873571838 -6.5454609423272387 
	-1.3357805508172733 49.864055553260116 -6.900961564735435 
	-0.65417247977678361 49.999999999999993 -7 
	0.65417247977678405 49.999999999999993 -7 
	1.335780550817266 49.86405555326013 -6.9009615647354376 
	2.5621319368559869 49.344976873571859 -6.5454609423272423 
	3.1081131138403477 48.962954698025115 -6.2916520860071472 
	3.9698810172795254 48.101186794585942 -5.7873405658305188 
	4.3475522819434129 47.556352415059038 -5.4968631387228131 
	4.8621776583263285 46.339911747879931 -5.0473710405596552 
	5 45.66477329173118 -4.8989794855663558 
	5 44.999999999999993 -4.8989794855663558 
	0.0034235257880149018 
	cone 0 44.999999999999993 0 0 0 -1 -5 0 0 1 I I 0 1 5 forward I I I I 
	cone 0 26.999999999999996 0 -0 -1 -0 7 0 0 1 I I 0 -1 7 forward I I I I 
	nullbs 
	nullbs 
	I I 
	0 
	0 
	0 
	} I I #
intcurve-curve $-1 -1 $-1 forward { blndsprngcur full nurbs 3 periodic 14 
	0 3 0.098465233399185115 2 0.25600960683788132 2 0.46081729230818635 2 0.72706728341958293 2 
	1.0194495127551029 2 1.3135982594713553 2 1.6408616183122797 2 2.0202571367946063 2 2.3343839095922392 2 
	2.7207146819676349 2 3.0760219915575036 2 3.4573670881676439 2 3.6375629781021277 3 
	5 44.999999999999993 -25.532998322843198 1 
	5 45.28441324228438 -25.532998322843198 1 
	4.9756635863785448 45.568856626381582 -25.539455063341361 1 
	4.850147216337465 46.297299697257543 -25.572004143224948 1 
	4.7114666701622863 46.734241262109705 -25.607714948985443 1 
	4.2644149404775007 47.676206027713768 -25.713570222061431 1 
	3.9174514437102785 48.16208671635772 -25.790670518743294 1 
	2.9517375298382911 49.107391427572686 -25.966266801571962 1 
	2.2812138783988081 49.51492714670848 -26.062877459525758 1 
	0.751138976412426 50.014527474860131 -26.185127276303334 1 
	-0.11889694122925537 50.069268408769773 -26.200349865069956 1 
	-1.7805010574116116 49.748690300620595 -26.119444792598976 1 
	-2.5682651254598587 49.372255909368874 -26.024158423114997 1 
	-3.9341345691277727 48.225627323826473 -25.796314751147658 1 
	-4.4782868248048402 47.41562782921261 -25.665133177049562 1 
	-5.0962450778873478 45.474169919835745 -25.510433138621373 1 
	-5.0725380184969087 44.318201121916346 -25.517598893695546 1 
	-4.389268791124489 42.439948618099137 -25.686181899361088 1 
	-3.8464023868679229 41.680654010461787 -25.813390317662478 1 
	-2.2836801671526805 40.415863534299874 -26.068346049031387 1 
	-1.1797981046684611 40.014821147367655 -26.179263184830535 1 
	0.96109397883164749 39.987169547824159 -26.186363560093987 1 
	1.9873192955442898 40.299857837683476 -26.099978815282068 1 
	3.7314589596819521 41.496413464049198 -25.844586486652368 1 
	4.4208766527132433 42.418491071057709 -25.67939207305486 1 
	4.9179286090327556 43.958953263482137 -25.555125001170968 1 
	5 44.479510731520683 -25.532998322843198 1 
	5 44.999999999999993 -25.532998322843198 1 
	0.009160395658443456 
	spline forward { ref 0 } I I I I 
	cone 0 44.999999999999993 0 0 0 -1 -5 0 0 1 I I -0 -1 5 forward I I I I 
	nubs 1 periodic 2 
	0 1 3.6375629781021277 1 
	1 0 
	1 3.6375629781021277 
	
	nullbs 
	I I 
	0 
	0 
	0 
	right } I I #
intcurve-curve $-1 -1 $-1 reversed { blndsprngcur full nurbs 3 periodic 14 
	0 3 0.098465233399185115 2 0.25600960683788132 2 0.46081729230818635 2 0.72706728341958293 2 
	1.0194495127551029 2 1.3135982594713553 2 1.6408616183122797 2 2.0202571367946063 2 2.3343839095922392 2 
	2.7207146819676349 2 3.0760219915575036 2 3.4573670881676439 2 3.6375629781021277 3 
	5.9791057698606123 45 -26.329646678085513 1 
	5.9791057698606123 45.329816843144741 -26.329646678085513 1 
	5.9500037716402607 45.659668639927602 -26.336304873643243 1 
	5.799908641175346 46.504400031888402 -26.369869508794803 1 
	5.6340715104146621 47.011094749760105 -26.406694517999561 1 
	5.0994775951377687 48.103434342845787 -26.515852553568358 1 
	4.6845713060464407 48.6668808040112 -26.595358436288734 1 
	3.5297501791531047 49.763093530108613 -26.77643345248562 1 
	2.7279238125227492 50.235688066406169 -26.876058434115361 1 
	0.89822787756561095 50.81504436410026 -27.002122535225439 1 
	-0.14217947746393816 50.878524115845217 -27.017820079974676 1 
	-2.1291608291219526 50.506769064069708 -26.934390709648042 1 
	-3.0711857660332651 50.070240857516538 -26.836131335268906 1 
	-4.7045213403354911 48.740565005205227 -26.60117877290687 1 
	-5.3552301186562765 47.801257559051535 -26.465904237073453 1 
	-6.0941976699639984 45.54986619054133 -26.30637744349448 1 
	-6.0658482668464391 44.209359058590067 -26.313766775405263 1 
	-5.2487804708963113 42.031263177884632 -26.487609695025572 1 
	-4.5996093409036991 41.150755123841421 -26.618787109663018 1 
	-2.7308730527859404 39.684054070343542 -26.881697647650661 1 
	-1.410827530978761 39.218989458855475 -26.996075479804613 1 
	1.1492965108421205 39.186923570516072 -27.003397392006413 1 
	2.3764784533087586 39.549529276992239 -26.914317379524412 1 
	4.4621575591664078 40.937102500254518 -26.65095662211985 1 
	5.2865778204094847 42.00638015777615 -26.480608021104924 1 
	5.8809630643995856 43.792761035151877 -26.352463725043314 1 
	5.9791057698606123 44.396420061028977 -26.329646678085513 1 
	5.9791057698606123 45 -26.329646678085513 1 
	0.009160395658443456 
	spline forward { ref 0 } I I I I 
	cone 0 42 0 -0 -1 -0 27 0 0 1 I I 0 1 27 forward I I I I 
	nubs 1 periodic 2 
	0 1 3.6375629781021277 1 
	0 0 
	0 3.6375629781021277 
	
	nullbs 
	I I 
	0 
	0 
	0 
	left } I I #
point $-1 -1 $-1 5.9791057698605279 44.999999999999986 -26.329646678085538 #
point $-1 -1 $-1 5.0000000000000071 44.999999999999886 -25.532998322844058 #
face $-1 -1 $-1 $68 $69 $2 $-1 $70 forward single #
loop $-1 -1 $-1 $71 $72 $38 #
plane-surface $-1 -1 $-1 19.000000000000011 2.0000000000000036 0 -0 -1 -0 0 0 -10 forward_v I I I I #
coedge $-1 -1 $-1 $57 $57 $73 $74 reversed $39 $-1 #
coedge $-1 -1 $-1 $58 $58 $75 $76 forward $41 $-1 #
coedge $-1 -1 $-1 $59 $59 $42 $60 reversed $71 $-1 #
edge $-1 -1 $-1 $77 -3.1415926535897931 $77 3.1415926535897931 $59 $78 forward @7 unknown #
coedge $-1 -1 $-1 $61 $61 $44 $62 forward $79 $-1 #
edge $-1 -1 $-1 $80 0 $80 6.2831853071795862 $61 $81 forward @7 unknown #
loop $-1 -1 $-1 $82 $45 $68 #
vertex $-1 -1 $-1 $46 $83 #
ellipse-curve $-1 -1 $-1 0 51.999999999999993 0 -0 -1 -0 26.999999999999996 0 0 1 I I #
loop $-1 -1 $-1 $-1 $75 $21 #
point $-1 -1 $-1 5 44.999999999999993 -4.8989794855663549 #
face $-1 -1 $-1 $84 $63 $2 $-1 $85 forward single #
loop $-1 -1 $-1 $86 $73 $54 #
cone-surface $-1 -1 $-1 0 51.499999999999993 0 0 1 0 -7.4999999999999956 0 0 1 I I -0.70710678118654624 -0.70710678118654868 7.4999999999999956 forward I I I I #
loop $-1 -1 $-1 $-1 $59 $38 #
coedge $-1 -1 $-1 $72 $72 $87 $88 forward $55 $-1 #
coedge $-1 -1 $-1 $73 $73 $57 $74 forward $69 $-1 #
edge $-1 -1 $-1 $89 -3.1415926535897931 $89 3.1415926535897931 $57 $90 forward @7 unknown #
coedge $-1 -1 $-1 $75 $75 $58 $76 reversed $66 $-1 #
edge $-1 -1 $-1 $91 -3.1415926535897931 $91 3.1415926535897931 $75 $92 forward @7 unknown #
vertex $-1 -1 $-1 $60 $93 #
ellipse-curve $-1 -1 $-1 0 2.0000000000000036 0 -0 -1 -0 -8.0000000000000053 0 0 1 I I #
loop $-1 -1 $-1 $-1 $61 $94 #
vertex $-1 -1 $-1 $62 $95 #
ellipse-curve $-1 -1 $-1 0 32.000000000000007 0 -0 -1 -0 27 0 0 1 I I #
loop $-1 -1 $-1 $-1 $96 $68 #
point $-1 -1 $-1 26.999999999999996 51.999999999999993 0 #
face $-1 -1 $-1 $97 $98 $2 $-1 $99 forward single #
plane-surface $-1 -1 $-1 16.999999999999996 51.999999999999993 0 0 1 0 0 0 10 forward_v I I I I #
loop $-1 -1 $-1 $-1 $100 $54 #
coedge $-1 -1 $-1 $87 $87 $72 $88 reversed $101 $-1 #
edge $-1 -1 $-1 $102 0 $102 6.2831853071795862 $72 $103 forward @7 unknown #
vertex $-1 -1 $-1 $74 $104 #
ellipse-curve $-1 -1 $-1 0 51 0 -0 -1 -0 -7 -0 -0 1 I I #
vertex $-1 -1 $-1 $76 $105 #
ellipse-curve $-1 -1 $-1 0 2.9999999999999982 0 0 1 0 -7 -0 -0 1 I I #
point $-1 -1 $-1 8.0000000000000053 2.0000000000000036 9.7971743931788335e-016 #
face $-1 -1 $-1 $106 $107 $2 $-1 $108 forward single #
point $-1 -1 $-1 27 32.000000000000007 0 #
coedge $-1 -1 $-1 $96 $96 $100 $109 reversed $82 $-1 #
face $-1 -1 $-1 $110 $111 $2 $-1 $112 forward single #
loop $-1 -1 $-1 $113 $114 $84 #
torus-surface $-1 -1 $-1 0 17.800121528715781 0 -0 -1 -0 45.000000000000007 -3.0000000000000004 0 0 -1 forward_v I I I I #
coedge $-1 -1 $-1 $100 $100 $96 $109 forward $86 $-1 #
loop $-1 -1 $-1 $115 $87 $116 #
vertex $-1 -1 $-1 $88 $117 #
ellipse-curve $-1 -1 $-1 0 2.0000000000000084 0 -0 -1 -0 31.000000000000014 0 0 1 I I #
point $-1 -1 $-1 7 51 8.5725275940314722e-016 #
point $-1 -1 $-1 7 2.9999999999999982 -8.5725275940314722e-016 #
face $-1 -1 $-1 $118 $119 $2 $-1 $120 forward single #
loop $-1 -1 $-1 $79 $121 $94 #
plane-surface $-1 -1 $-1 29.000000000000004 32.000000000000007 0 0 1 0 0 0 10 forward_v I I I I #
edge $-1 -1 $-1 $122 -3.1415926535897931 $122 3.1415926535897931 $96 $123 forward @7 unknown #
face $-1 -1 $-1 $124 $125 $2 $-1 $126 forward single #
loop $-1 -1 $-1 $127 $128 $97 #
cone-surface $-1 -1 $-1 0 16.999999999999975 0 -0 -1 -0 42.000000000000014 0 0 1 I I 0 1 42.000000000000014 forward I I I I #
loop $-1 -1 $-1 $-1 $129 $84 #
coedge $-1 -1 $-1 $114 $114 $130 $131 forward $98 $-1 #
loop $-1 -1 $-1 $-1 $132 $116 #
face $-1 -1 $-1 $94 $101 $2 $-1 $133 forward single #
point $-1 -1 $-1 31.000000000000014 2.0000000000000084 0 #
face $-1 -1 $-1 $134 $135 $2 $-1 $136 forward single #
loop $-1 -1 $-1 $137 $138 $106 #
cone-surface $-1 -1 $-1 0 33.000000000000007 0 -0 -1 -0 56.999999999999993 0 0 1 I I 0 -1 56.999999999999993 forward I I I I #
coedge $-1 -1 $-1 $121 $121 $139 $140 reversed $107 $-1 #
vertex $-1 -1 $-1 $109 $141 #
ellipse-curve $-1 -1 $-1 0 51.999999999999993 0 0 1 0 -7.9999999999999929 0 0 1 I I #
face $-1 -1 $-1 $142 $143 $2 $-1 $144 forward single #
loop $-1 -1 $-1 $145 $146 $110 #
cone-surface $-1 -1 $-1 0 24.450372071672458 0 -0 -1 -0 54.5 0 0 1 I I -0.93969262078590787 0.34202014332567032 54.5 forward I I I I #
loop $-1 -1 $-1 $-1 $147 $97 #
coedge $-1 -1 $-1 $128 $128 $148 $149 reversed $111 $-1 #
coedge $-1 -1 $-1 $129 $129 $147 $150 forward $113 $-1 #
coedge $-1 -1 $-1 $130 $130 $114 $131 reversed $145 $-1 #
edge $-1 -1 $-1 $151 -3.1415926535897931 $151 3.1415926535897931 $130 $152 forward @7 tangent #
coedge $-1 -1 $-1 $132 $132 $153 $154 reversed $115 $-1 #
cone-surface $-1 -1 $-1 0 6.7316130454606284 0 -0 -1 -0 31.000000000000011 0 0 1 I I 0 1 31.000000000000011 forward I I I I #
face $-1 -1 $-1 $155 $156 $2 $-1 $157 forward single #
loop $-1 -1 $-1 $158 $159 $118 #
plane-surface $-1 -1 $-1 62 34.000000000000007 0 0 1 0 0 0 10 forward_v I I I I #
loop $-1 -1 $-1 $-1 $160 $106 #
coedge $-1 -1 $-1 $138 $138 $161 $162 reversed $119 $-1 #
coedge $-1 -1 $-1 $139 $139 $121 $140 forward $163 $-1 #
edge $-1 -1 $-1 $164 0 $164 6.2831853071795862 $139 $165 forward @7 unknown #
point $-1 -1 $-1 7.9999999999999929 51.999999999999993 -9.7971743931788158e-016 #
face $-1 -1 $-1 $166 $167 $2 $-1 $168 forward single #
loop $-1 -1 $-1 $169 $148 $124 #
torus-surface $-1 -1 $-1 0 16.199878471284176 0 -0 -1 -0 45.000000000000007 -3.0000000000000004 0 0 -1 forward_v I I I I #
loop $-1 -1 $-1 $-1 $130 $110 #
coedge $-1 -1 $-1 $146 $146 $170 $171 forward $125 $-1 #
coedge $-1 -1 $-1 $147 $147 $129 $150 reversed $127 $-1 #
coedge $-1 -1 $-1 $148 $148 $128 $149 forward $143 $-1 #
edge $-1 -1 $-1 $172 -3.1415926535897931 $172 3.1415926535897931 $128 $173 forward @7 tangent #
edge $-1 -1 $-1 $174 -3.1415926535897931 $174 3.1415926535897931 $147 $175 forward @7 tangent #
vertex $-1 -1 $-1 $131 $176 #
ellipse-curve $-1 -1 $-1 0 20.619199391073508 -5.3852544340327805e-015 0 -1 0 -43.973939570022999 0 0 1 I I #
coedge $-1 -1 $-1 $153 $153 $132 $154 forward $177 $-1 #
edge $-1 -1 $-1 $178 -3.1415926535897931 $178 3.1415926535897931 $132 $179 forward @7 tangent #
face $-1 -1 $-1 $180 $181 $2 $-1 $182 forward single #
loop $-1 -1 $-1 $183 $170 $134 #
cone-surface $-1 -1 $-1 0 31.500000000000007 0 -0 -1 -0 67 0 0 1 I I 0 1 67 forward I I I I #
loop $-1 -1 $-1 $-1 $161 $118 #
coedge $-1 -1 $-1 $159 $159 $184 $185 reversed $135 $-1 #
coedge $-1 -1 $-1 $160 $160 $186 $187 forward $137 $-1 #
coedge $-1 -1 $-1 $161 $161 $138 $162 forward $158 $-1 #
edge $-1 -1 $-1 $188 0 $188 6.2831853071795862 $161 $189 forward @7 unknown #
loop $-1 -1 $-1 $190 $139 $191 #
vertex $-1 -1 $-1 $140 $192 #
ellipse-curve $-1 -1 $-1 0 32.000000000000007 0 -0 -1 -0 31 0 0 1 I I #
face $-1 -1 $-1 $191 $193 $2 $-1 $194 forward single #
loop $-1 -1 $-1 $195 $196 $142 #
cone-surface $-1 -1 $-1 0 9.549627928327526 0 -0 -1 -0 54.500000000000014 0 0 1 I I 0.93969262078590876 0.34202014332566788 54.500000000000014 forward I I I I #
loop $-1 -1 $-1 $-1 $197 $124 #
coedge $-1 -1 $-1 $170 $170 $146 $171 reversed $156 $-1 #
edge $-1 -1 $-1 $198 0 $198 6.2831853071795862 $146 $199 forward @7 unknown #
vertex $-1 -1 $-1 $149 $200 #
ellipse-curve $-1 -1 $-1 0 16.199878471284176 0 -0 -1 -0 -42.000000000000014 0 5.1435165564188849e-015 1 I I #
vertex $-1 -1 $-1 $150 $201 #
ellipse-curve $-1 -1 $-1 0 17.800121528715781 0 0 1 0 -42.000000000000014 0 5.1435165564188849e-015 1 I I #
point $-1 -1 $-1 43.973939570022999 20.619199391073508 0 #
loop $-1 -1 $-1 $-1 $153 $202 #
vertex $-1 -1 $-1 $154 $203 #
ellipse-curve $-1 -1 $-1 0 7.1787820706949059 0 0 1 0 -31.000000000000011 0 3.7964050773567959e-015 1 I I #
face $-1 -1 $-1 $204 $205 $2 $-1 $206 forward single #
loop $-1 -1 $-1 $207 $208 $155 #
cone-surface $-1 -1 $-1 0 2.5000000000000098 0 -0 -1 -0 67.000000000000014 0 0 1 I I 0 1 67.000000000000014 forward I I I I #
loop $-1 -1 $-1 $-1 $184 $134 #
coedge $-1 -1 $-1 $184 $184 $159 $185 forward $183 $-1 #
edge $-1 -1 $-1 $209 0 $209 6.2831853071795862 $184 $210 forward @7 unknown #
coedge $-1 -1 $-1 $186 $186 $160 $187 reversed $211 $-1 #
edge $-1 -1 $-1 $212 0 $212 6.2831853071795862 $160 $213 forward @7 unknown #
vertex $-1 -1 $-1 $162 $214 #
ellipse-curve $-1 -1 $-1 0 34.000000000000007 0 -0 -1 -0 57 0 0 1 I I #
loop $-1 -1 $-1 $-1 $215 $191 #
face $-1 -1 $-1 $216 $163 $2 $-1 $217 forward single #
point $-1 -1 $-1 31 32.000000000000007 0 #
loop $-1 -1 $-1 $218 $219 $166 #
torus-surface $-1 -1 $-1 0 26.821217929305057 0 -0 -1 -0 34 -3.0000000000000004 0 0 -1 forward_v I I I I #
loop $-1 -1 $-1 $-1 $220 $142 #
coedge $-1 -1 $-1 $196 $196 $221 $222 reversed $167 $-1 #
coedge $-1 -1 $-1 $197 $197 $220 $223 forward $169 $-1 #
vertex $-1 -1 $-1 $171 $224 #
ellipse-curve $-1 -1 $-1 0 29.000000000000007 0 -0 -1 -0 67 0 0 1 I I #
point $-1 -1 $-1 42.000000000000014 16.199878471284176 0 #
point $-1 -1 $-1 42.000000000000014 17.800121528715781 -1.028703311283777e-014 #
face $-1 -1 $-1 $225 $226 $2 $-1 $227 forward single #
point $-1 -1 $-1 31.000000000000011 7.1787820706949059 -7.5928101547135918e-015 #
face $-1 -1 $-1 $-1 $228 $2 $-1 $229 forward single #
loop $-1 -1 $-1 $230 $231 $180 #
plane-surface $-1 -1 $-1 62.000000000000014 7.7021722333370235e-015 0 -0 -1 -0 0 0 -10 forward_v I I I I #
loop $-1 -1 $-1 $-1 $221 $155 #
coedge $-1 -1 $-1 $208 $208 $232 $233 reversed $181 $-1 #
vertex $-1 -1 $-1 $185 $234 #
ellipse-curve $-1 -1 $-1 0 34.000000000000007 0 -0 -1 -0 67 0 0 1 I I #
loop $-1 -1 $-1 $235 $186 $216 #
vertex $-1 -1 $-1 $187 $236 #
ellipse-curve $-1 -1 $-1 0 32.000000000000007 0 -0 -1 -0 56.999999999999993 0 0 1 I I #
point $-1 -1 $-1 57 34.000000000000007 0 #
coedge $-1 -1 $-1 $215 $215 $219 $237 reversed $190 $-1 #
face $-1 -1 $-1 $202 $211 $2 $-1 $238 forward single #
cone-surface $-1 -1 $-1 0 27.268386954539356 0 -0 -1 -0 31.000000000000007 0 0 1 I I 0 1 31.000000000000007 forward I I I I #
loop $-1 -1 $-1 $-1 $239 $166 #
coedge $-1 -1 $-1 $219 $219 $215 $237 forward $193 $-1 #
coedge $-1 -1 $-1 $220 $220 $197 $223 reversed $195 $-1 #
coedge $-1 -1 $-1 $221 $221 $196 $222 forward $207 $-1 #
edge $-1 -1 $-1 $240 0 $240 6.2831853071795862 $221 $241 forward @7 unknown #
edge $-1 -1 $-1 $242 -3.1415926535897931 $242 3.1415926535897931 $220 $243 forward @7 tangent #
point $-1 -1 $-1 67 29.000000000000007 0 #
face $-1 -1 $-1 $116 $244 $2 $-1 $245 forward single #
loop $-1 -1 $-1 $177 $246 $202 #
torus-surface $-1 -1 $-1 0 7.1787820706949059 0 -0 -1 -0 34.000000000000014 -3.0000000000000004 0 0 -1 forward_v I I I I #
loop $-1 -1 $-1 $247 $248 $204 #
cone-surface $-1 -1 $-1 0 1.0000000000000056 0 -0 -1 -0 57.000000000000014 0 0 1 I I 0 -1 57.000000000000014 forward I I I I #
loop $-1 -1 $-1 $-1 $232 $180 #
coedge $-1 -1 $-1 $231 $231 $249 $250 reversed $205 $-1 #
coedge $-1 -1 $-1 $232 $232 $208 $233 forward $230 $-1 #
edge $-1 -1 $-1 $251 0 $251 6.2831853071795862 $232 $252 forward @7 unknown #
point $-1 -1 $-1 67 34.000000000000007 0 #
loop $-1 -1 $-1 $-1 $253 $216 #
point $-1 -1 $-1 56.999999999999993 32.000000000000007 0 #
edge $-1 -1 $-1 $254 -3.1415926535897931 $254 3.1415926535897931 $215 $255 forward @7 tangent #
cone-surface $-1 -1 $-1 0 27.268386954539356 0 -0 -1 -0 44 0 0 1 I I 0.93969262078590787 -0.3420201433256701 44 forward I I I I #
coedge $-1 -1 $-1 $239 $239 $253 $256 forward $218 $-1 #
vertex $-1 -1 $-1 $222 $257 #
ellipse-curve $-1 -1 $-1 0 5.0000000000000098 0 -0 -1 -0 67.000000000000014 0 0 1 I I #
vertex $-1 -1 $-1 $223 $258 #
ellipse-curve $-1 -1 $-1 0 13.38080060892645 -5.3852544340327813e-015 0 1 0 -43.973939570023006 0 0 1 I I #
loop $-1 -1 $-1 $259 $260 $225 #
cone-surface $-1 -1 $-1 0 6.7316130454606267 0 -0 -1 -0 44.000000000000014 0 0 1 I I -0.93969262078590865 -0.34202014332566799 44.000000000000014 forward I I I I #
coedge $-1 -1 $-1 $246 $246 $261 $262 forward $226 $-1 #
loop $-1 -1 $-1 $-1 $249 $204 #
coedge $-1 -1 $-1 $248 $248 $260 $263 reversed $228 $-1 #
coedge $-1 -1 $-1 $249 $249 $231 $250 forward $247 $-1 #
edge $-1 -1 $-1 $264 0 $264 6.2831853071795862 $249 $265 forward @7 unknown #
vertex $-1 -1 $-1 $233 $266 #
ellipse-curve $-1 -1 $-1 0 9.9920072216264089e-015 0 -0 -1 -0 67.000000000000014 0 0 1 I I #
coedge $-1 -1 $-1 $253 $253 $239 $256 reversed $235 $-1 #
vertex $-1 -1 $-1 $237 $267 #
ellipse-curve $-1 -1 $-1 0 26.821217929305057 0 -0 -1 -0 -31.000000000000007 0 3.7964050773567951e-015 1 I I #
edge $-1 -1 $-1 $268 -3.1415926535897931 $268 3.1415926535897931 $253 $269 forward @7 tangent #
point $-1 -1 $-1 67.000000000000014 5.0000000000000098 0 #
point $-1 -1 $-1 43.973939570023006 13.38080060892645 -1.0770508868065563e-014 #
loop $-1 -1 $-1 $-1 $261 $225 #
coedge $-1 -1 $-1 $260 $260 $248 $263 forward $244 $-1 #
coedge $-1 -1 $-1 $261 $261 $246 $262 reversed $259 $-1 #
edge $-1 -1 $-1 $270 -3.1415926535897931 $270 3.1415926535897931 $261 $271 forward @7 tangent #
edge $-1 -1 $-1 $272 0 $272 6.2831853071795862 $260 $273 forward @7 unknown #
vertex $-1 -1 $-1 $250 $274 #
ellipse-curve $-1 -1 $-1 0 5.2735593669694936e-015 0 -0 -1 -0 57.000000000000014 0 0 1 I I #
point $-1 -1 $-1 67.000000000000014 9.9920072216264089e-015 0 #
point $-1 -1 $-1 31.000000000000007 26.821217929305057 0 #
vertex $-1 -1 $-1 $256 $275 #
ellipse-curve $-1 -1 $-1 0 24.002140066947334 -4.289455279231312e-015 0 1 0 -35.026060429977015 0 0 1 I I #
vertex $-1 -1 $-1 $262 $276 #
ellipse-curve $-1 -1 $-1 0 9.9978599330526325 -4.289455279231312e-015 0 -1 0 -35.026060429977015 0 0 1 I I #
vertex $-1 -1 $-1 $263 $277 #
ellipse-curve $-1 -1 $-1 0 2.0000000000000058 0 -0 -1 -0 57.000000000000021 0 0 1 I I #
point $-1 -1 $-1 57.000000000000014 5.4123372450476381e-015 0 #
point $-1 -1 $-1 35.026060429977015 24.002140066947334 -8.578910558462624e-015 #
point $-1 -1 $-1 35.026060429977015 9.9978599330526325 0 #
point $-1 -1 $-1 57.000000000000021 2.0000000000000058 0 #
End-of-ACIS-data 